<?xml version="1.0" encoding="UTF-8" standalone="no"?>
<svg
   xmlns:dc="http://purl.org/dc/elements/1.1/"
   xmlns:cc="http://creativecommons.org/ns#"
   xmlns:rdf="http://www.w3.org/1999/02/22-rdf-syntax-ns#"
   xmlns:svg="http://www.w3.org/2000/svg"
   xmlns="http://www.w3.org/2000/svg"
   xmlns:sodipodi="http://sodipodi.sourceforge.net/DTD/sodipodi-0.dtd"
   xmlns:inkscape="http://www.inkscape.org/namespaces/inkscape"
   version="1.1"
   id="Capa_1"
   x="0px"
   y="0px"
   width="612px"
   height="612px"
   viewBox="0 0 612 612"
   style="enable-background:new 0 0 612 612;"
   xml:space="preserve"
   sodipodi:docname="backarrow.svg"
   inkscape:version="1.0.1 (3bc2e813f5, 2020-09-07)"><metadata
   id="metadata44"><rdf:RDF><cc:Work
       rdf:about=""><dc:format>image/svg+xml</dc:format><dc:type
         rdf:resource="http://purl.org/dc/dcmitype/StillImage" /></cc:Work></rdf:RDF></metadata><defs
   id="defs42" /><sodipodi:namedview
   pagecolor="#ffffff"
   bordercolor="#666666"
   borderopacity="1"
   objecttolerance="10"
   gridtolerance="10"
   guidetolerance="10"
   inkscape:pageopacity="0"
   inkscape:pageshadow="2"
   inkscape:window-width="1920"
   inkscape:window-height="1013"
   id="namedview40"
   showgrid="false"
   inkscape:zoom="0.97284953"
   inkscape:cx="145.15896"
   inkscape:cy="349.05263"
   inkscape:window-x="-9"
   inkscape:window-y="-9"
   inkscape:window-maximized="1"
   inkscape:current-layer="g7" />
<g
   id="g7">
	<g
   id="_x37__42_"
   style="fill:#007373;fill-opacity:0.99595141">
		<g
   id="g4"
   style="fill:#007373;fill-opacity:0.99595141">
			<path
   d="M535.5,0h-459C34.253,0,0,34.253,0,76.5v459C0,577.747,34.253,612,76.5,612h459c42.247,0,76.5-34.253,76.5-76.5v-459     C612,34.253,577.747,0,535.5,0z M573.75,535.5c0,21.114-17.117,38.25-38.25,38.25h-459c-21.133,0-38.25-17.136-38.25-38.25v-459     c0-21.133,17.117-38.25,38.25-38.25h459c21.133,0,38.25,17.117,38.25,38.25V535.5z M420.75,286.875H218.293l78.814-78.814     c7.478-7.478,7.478-19.584,0-27.043c-7.478-7.478-19.584-7.478-27.043,0l-108.19,108.19c-4.571,4.571-6.005,10.863-4.954,16.792     c-1.052,5.929,0.383,12.221,4.973,16.811l108.19,108.19c7.478,7.478,19.584,7.478,27.043,0s7.478-19.584,0-27.043l-78.833-78.833     H420.75c10.557,0,19.125-8.568,19.125-19.125C439.875,295.443,431.307,286.875,420.75,286.875z"
   id="path2"
   style="fill:#007373;fill-opacity:0.99595141" />
		</g>
	</g>
</g>
<g
   id="g9">
</g>
<g
   id="g11">
</g>
<g
   id="g13">
</g>
<g
   id="g15">
</g>
<g
   id="g17">
</g>
<g
   id="g19">
</g>
<g
   id="g21">
</g>
<g
   id="g23">
</g>
<g
   id="g25">
</g>
<g
   id="g27">
</g>
<g
   id="g29">
</g>
<g
   id="g31">
</g>
<g
   id="g33">
</g>
<g
   id="g35">
</g>
<g
   id="g37">
</g>
</svg>
