<svg id="Group_2" data-name="Group 2" xmlns="http://www.w3.org/2000/svg" width="52.248" height="44.497" viewBox="0 0 52.248 44.497">
  <g id="Group_1" data-name="Group 1" transform="translate(0 0)">
    <path id="Path_12" data-name="Path 12" d="M132.184,375.691l-2.472,2.188a22.711,22.711,0,0,0,2.558,2.46l2.09-2.554A19.047,19.047,0,0,1,132.184,375.691Z" transform="translate(-116.352 -340.872)"/>
    <path id="Path_13" data-name="Path 13" d="M95.8,326.187l-3.029,1.3a21.96,21.96,0,0,0,1.663,3.144l2.78-1.767A18.9,18.9,0,0,1,95.8,326.187Z" transform="translate(-83.213 -296.467)"/>
    <path id="Path_14" data-name="Path 14" d="M41.156,40.628A22.222,22.222,0,0,0,7.974,56.937L2.33,51.293,0,53.623l9.4,9.4,9.4-9.4-2.33-2.33-5.1,5.09A18.931,18.931,0,1,1,20.5,76.271L18.839,79.12A22.247,22.247,0,0,0,41.156,40.628Z" transform="translate(0 -37.627)"/>
    <path id="Path_15" data-name="Path 15" d="M267.312,109.627v18.127l7.251,5.438,1.977-2.637-5.932-4.449V109.627Z" transform="translate(-239.78 -102.211)"/>
  </g>
</svg>
