<svg xmlns="http://www.w3.org/2000/svg" width="54.178" height="47" viewBox="0 0 54.178 47">
  <path id="basket" d="M53.485,2.59h-6.4a1.58,1.58,0,0,0-.171.034,1.537,1.537,0,0,0-.624.19,1.622,1.622,0,0,0-.8.993,1.6,1.6,0,0,0-.069.172l-.97,5.3L3.016,11.7a2.877,2.877,0,0,0-.476.029A1.694,1.694,0,0,0,1,13.54a1.727,1.727,0,0,0,.028.2L3.919,29.487c.66,2.441,2.694,4.906,5.753,4.906H39.852l-.646,3.532h-25.4a5.833,5.833,0,1,0,5.832,5.832,5.769,5.769,0,0,0-.556-2.446H34.681a5.768,5.768,0,0,0-.556,2.446,5.832,5.832,0,1,0,8.409-5.205L48.494,5.976h4.991a1.693,1.693,0,0,0,0-3.386Zm-11.8,21.8-7.175.113L34.9,20.34l7.566-.227ZM5.841,21.211,13.01,21l.469,3.832-6.956.109Zm9.434-.283,7.88-.236v3.984l-7.407.116Zm7.881-2.5L15,18.677l-.521-4.256,8.677-.507v4.519Zm2.257-4.651,7.879-.461-.453,4.821-7.426.223V13.782ZM23.156,26.934v4.073H16.509l-.485-3.961Zm2.257-.035,6.613-.1-.4,4.212H25.413V26.9Zm0-2.258V20.624l7.213-.216-.388,4.125Zm17.468-6.8-7.768.233.459-4.886,8.249-.482Zm-30.66-3.288.513,4.192-7.305.219c-.308-1.672-.553-2.972-.762-3.969Zm-5,14.188-.284-1.552,6.82-.107.481,3.925H9.672C8.221,31.007,7.413,29.435,7.219,28.741ZM33.9,31.007l.4-4.248,6.973-.11-.8,4.357H33.9ZM16.256,43.757a2.446,2.446,0,1,1-2.446-2.446A2.449,2.449,0,0,1,16.256,43.757Zm23.7,2.447A2.446,2.446,0,1,1,42.4,43.757,2.449,2.449,0,0,1,39.957,46.2Z" transform="translate(-1 -2.59)" fill="#1d1d1b"/>
</svg>
