<svg xmlns="http://www.w3.org/2000/svg" width="36.906" height="48.451" viewBox="0 0 36.906 48.451">
  <g id="financial" transform="translate(-61)">
    <path id="Path_5" data-name="Path 5" d="M301,241h8.517v2.839H301Z" transform="translate(-217.288 -218.194)"/>
    <path id="Path_6" data-name="Path 6" d="M125.258,75.195a1.421,1.421,0,0,1-1.419-1.419H121a4.265,4.265,0,0,0,2.839,4.014v3.083h2.839V77.79a4.258,4.258,0,0,0-1.419-8.273,1.419,1.419,0,1,1,1.419-1.42h2.839a4.265,4.265,0,0,0-2.839-4.014V61h-2.839v3.083a4.258,4.258,0,0,0,1.419,8.273,1.419,1.419,0,1,1,0,2.839Z" transform="translate(-54.322 -55.227)"/>
    <path id="Path_7" data-name="Path 7" d="M97.906,12.285,85.722,0H61V48.451H97.906ZM86.55,4.867,93.08,11.45H86.55ZM63.839,45.612V2.839H83.712v11.45H95.067V45.612Z"/>
    <path id="Path_8" data-name="Path 8" d="M121,301H146.55v2.839H121Z" transform="translate(-54.322 -272.516)"/>
    <path id="Path_9" data-name="Path 9" d="M121,361H146.55v2.839H121Z" transform="translate(-54.322 -326.838)"/>
    <path id="Path_10" data-name="Path 10" d="M121,421H146.55v2.839H121Z" transform="translate(-54.322 -381.16)"/>
    <path id="Path_11" data-name="Path 11" d="M241,241h2.839v2.839H241Z" transform="translate(-162.966 -218.194)"/>
  </g>
</svg>
